<?xml version="1.0" encoding="iso-8859-1"?>
<!-- Generator: Adobe Illustrator 19.0.0, SVG Export Plug-In . SVG Version: 6.00 Build 0)  -->
<svg version="1.1" id="Layer_1" xmlns="http://www.w3.org/2000/svg" xmlns:xlink="http://www.w3.org/1999/xlink" x="0px" y="0px"
	 viewBox="0 0 512 512" style="enable-background:new 0 0 512 512;" xml:space="preserve">
<path style="fill:#25B6D2;" d="M468.128,218.72v245.168c0,18.912-15.888,34.384-35.312,34.384H79.184
	c-19.424,0-35.312-15.472-35.312-34.384V218.72"/>
<path d="M376,101.728h-16v-48c0-13.232-10.768-24-24-24H176c-13.232,0-24,10.768-24,24v48h-16v-48c0-22.064,17.936-40,40-40h160
	c22.064,0,40,17.936,40,40V101.728z"/>
<path style="fill:#E04F5F;" d="M480,223.248H32c-17.6,0-32-14.4-32-32v-73.52c0-17.6,14.4-32,32-32h448c17.6,0,32,14.4,32,32v73.52
	C512,208.848,497.6,223.248,480,223.248z"/>
<path style="fill:#FFFFFF;" d="M248.608,449.344v-21.92c-12.576-0.224-25.6-4.128-33.2-9.536l5.2-14.544
	c7.824,5.2,19.104,9.328,31.248,9.328c15.424,0,25.84-8.896,25.84-21.264c0-11.92-8.48-19.312-24.528-25.808
	c-22.144-8.688-35.808-18.672-35.808-37.536c0-18.016,12.816-31.68,32.784-34.944V271.2H263.6v21.056
	c13.024,0.432,21.92,3.904,28.208,7.6l-5.424,14.32c-4.56-2.624-13.472-7.376-27.36-7.376c-16.704,0-22.992,9.984-22.992,18.656
	c0,11.296,8.032,16.928,26.912,24.736c22.368,9.12,33.648,20.4,33.648,39.728c0,17.136-11.952,33.2-34.304,36.88v22.576h-13.68
	V449.344z"/>
<g>
</g>
<g>
</g>
<g>
</g>
<g>
</g>
<g>
</g>
<g>
</g>
<g>
</g>
<g>
</g>
<g>
</g>
<g>
</g>
<g>
</g>
<g>
</g>
<g>
</g>
<g>
</g>
<g>
</g>
</svg>
