<?xml version="1.0" encoding="iso-8859-1"?>
<!-- Generator: Adobe Illustrator 19.0.0, SVG Export Plug-In . SVG Version: 6.00 Build 0)  -->
<svg version="1.1" id="Layer_1" xmlns="http://www.w3.org/2000/svg" xmlns:xlink="http://www.w3.org/1999/xlink" x="0px" y="0px"
	 viewBox="0 0 472.615 472.615" style="enable-background:new 0 0 472.615 472.615;" xml:space="preserve">
<g>
	<g>
		<path d="M399.022,231.558c5.85-13.39,9.143-28.152,9.143-43.697c0-60.376-48.942-109.318-109.316-109.318
			c-52.31,0-95.977,36.768-106.725,85.849c-14.632-17.863-36.851-29.269-61.743-29.269c-44.065,0-79.787,35.721-79.787,79.785
			c0,7.376,1.081,14.484,2.954,21.265C22.328,247.577,0,277.447,0,312.616c0,44.985,36.468,81.456,81.454,81.456H391.16
			c44.986,0,81.455-36.471,81.455-81.456C472.615,270.284,440.316,235.518,399.022,231.558z M236.305,358.38l-61.769-61.779
			l13.924-13.922l37.999,38.007V220.063h19.692v100.625l38.01-38.009l13.922,13.922L236.305,358.38z"/>
	</g>
</g>
<g>
</g>
<g>
</g>
<g>
</g>
<g>
</g>
<g>
</g>
<g>
</g>
<g>
</g>
<g>
</g>
<g>
</g>
<g>
</g>
<g>
</g>
<g>
</g>
<g>
</g>
<g>
</g>
<g>
</g>
</svg>
