<?xml version="1.0" encoding="iso-8859-1"?>
<!-- Generator: Adobe Illustrator 19.0.0, SVG Export Plug-In . SVG Version: 6.00 Build 0)  -->
<svg version="1.1" id="Capa_1" xmlns="http://www.w3.org/2000/svg" xmlns:xlink="http://www.w3.org/1999/xlink" x="0px" y="0px"
	 viewBox="0 0 490.1 490.1" style="enable-background:new 0 0 490.1 490.1;" xml:space="preserve">
<g>
	<line style="fill:none;" x1="20.95" y1="469.1" x2="20.95" y2="79.2"/>
	<line style="fill:none;" x1="132.45" y1="469.1" x2="132.45" y2="188.7"/>
	<line style="fill:none;" x1="245.05" y1="469.1" x2="245.05" y2="262.7"/>
	<line style="fill:none;" x1="357.65" y1="469.1" x2="357.65" y2="339.9"/>
	<line style="fill:none;" x1="469.15" y1="469.1" x2="469.15" y2="414.9"/>
	<g>
		<path d="M20.95,58.4c-11.5,0-20.9,9.4-20.9,20.8v389.9c0,11.5,9.4,20.9,20.9,20.9c10.4,0,19.8-9.4,20.9-20.9V79.2
			C41.75,67.8,32.35,58.4,20.95,58.4z"/>
		<path d="M132.45,167.9c-11.5,0-20.9,9.4-20.9,20.9v280.4c0,11.5,9.4,20.9,20.9,20.9s20.9-9.4,20.9-20.9V188.7
			C153.35,177.2,143.95,167.9,132.45,167.9z"/>
		<path d="M245.05,241.9c-11.5,0-20.9,9.4-20.9,20.9v206.4c0,11.5,9.4,20.9,20.9,20.9c11.5,0,20.9-9.4,20.9-20.9V262.7
			C265.95,251.3,256.55,241.9,245.05,241.9z"/>
		<path d="M357.65,319c-11.5,0-20.9,9.4-20.9,20.9v129.3c0,11.5,9.4,20.9,20.9,20.9s19.8-9.4,20.9-20.9V339.9
			C378.45,328.4,369.15,319,357.65,319z"/>
		<path d="M469.15,394.1c-11.5,0-20.9,9.4-20.9,20.9v54.2c0,11.5,9.4,20.9,20.9,20.9s20.9-9.4,20.9-20.9V415
			C490.05,403.5,480.65,394.1,469.15,394.1z"/>
		<path d="M404.55,254.4l-34.3-14.6c-10.4-5.2-22.9,0-27.1,10.4c-5.2,10.4,0,22.9,10.4,27.1l97,41.7c12.2,5.9,24.6-0.7,28.1-17.7
			l10.4-105.3c1-10.4-7.3-20.9-18.8-21.9c-10.4-1-20.9,7.3-21.9,18.8l-4.5,47.2C292.35,10.7,67.45,0,57.35,0c-1,0-1,0-1,0
			c-11.5,0-20.9,8.3-20.9,19.8s8.3,20.9,19.8,20.9C57.25,40.7,264.25,51.2,404.55,254.4z"/>
	</g>
</g>
<g>
</g>
<g>
</g>
<g>
</g>
<g>
</g>
<g>
</g>
<g>
</g>
<g>
</g>
<g>
</g>
<g>
</g>
<g>
</g>
<g>
</g>
<g>
</g>
<g>
</g>
<g>
</g>
<g>
</g>
</svg>
