<?xml version="1.0" encoding="iso-8859-1"?>
<!-- Generator: Adobe Illustrator 18.0.0, SVG Export Plug-In . SVG Version: 6.00 Build 0)  -->
<!DOCTYPE svg PUBLIC "-//W3C//DTD SVG 1.1//EN" "http://www.w3.org/Graphics/SVG/1.1/DTD/svg11.dtd">
<svg version="1.1" id="Capa_1" xmlns="http://www.w3.org/2000/svg" xmlns:xlink="http://www.w3.org/1999/xlink" x="0px" y="0px"
	 viewBox="0 0 147.402 147.402" style="enable-background:new 0 0 147.402 147.402;" xml:space="preserve">
<g>
	<path d="M9,113.199c-4.971,0-9,4.029-9,9s4.029,9,9,9c3.972,0,7.203,3.231,7.203,7.203c0,4.971,4.029,9,9,9s9-4.029,9-9
		C34.203,124.505,22.897,113.199,9,113.199z"/>
	<path d="M9,56.158c-4.971,0-9,4.029-9,9s4.029,9,9,9c35.425,0,64.244,28.819,64.244,64.244c0,4.971,4.029,9,9,9s9-4.029,9-9
		C91.244,93.053,54.35,56.158,9,56.158z"/>
	<path d="M9,0C4.029,0,0,4.03,0,9s4.029,9,9,9c66.39,0,120.402,54.012,120.402,120.401c0,4.971,4.029,9,9,9s9-4.029,9-9
		C147.402,62.087,85.315,0,9,0z"/>
</g>
<g>
</g>
<g>
</g>
<g>
</g>
<g>
</g>
<g>
</g>
<g>
</g>
<g>
</g>
<g>
</g>
<g>
</g>
<g>
</g>
<g>
</g>
<g>
</g>
<g>
</g>
<g>
</g>
<g>
</g>
</svg>
