<?xml version="1.0" encoding="iso-8859-1"?>
<!-- Generator: Adobe Illustrator 19.0.0, SVG Export Plug-In . SVG Version: 6.00 Build 0)  -->
<svg version="1.1" id="Layer_1" xmlns="http://www.w3.org/2000/svg" xmlns:xlink="http://www.w3.org/1999/xlink" x="0px" y="0px"
	 viewBox="0 0 512.035 512.035" style="enable-background:new 0 0 512.035 512.035;" xml:space="preserve">
<g transform="translate(1 1)">
	<path style="fill:#FD9808;" d="M255.035,20.351c-136.533,0-247.467,98.987-247.467,221.867c0,45.227,15.36,87.04,40.96,122.027
		c-3.413,40.96-12.8,97.28-40.96,125.44c0,0,84.48-11.947,142.507-46.933c31.573,13.653,67.413,21.333,104.96,21.333
		c136.533,0,247.467-98.987,247.467-221.867S391.568,20.351,255.035,20.351"/>
	<path style="fill:#FFDD09;" d="M242.235,20.351c-129.707,0-234.667,98.987-234.667,221.867c0,45.227,14.507,87.04,38.4,122.027
		c-2.56,40.96-11.947,97.28-38.4,125.44c0,0,80.213-11.947,134.827-46.933c29.867,13.653,64,21.333,99.84,21.333
		c129.707,0,234.667-98.987,234.667-221.867S371.941,20.351,242.235,20.351"/>
	<path style="fill:#FFFFFF;" d="M38.288,483.711c22.187-29.013,30.72-81.067,33.28-119.467c-23.893-34.987-38.4-76.8-38.4-122.027
		c0-118.613,98.133-215.04,221.867-221.867c-4.267,0-8.533,0-12.8,0c-129.707,0-234.667,98.987-234.667,221.867
		c0,45.227,14.507,87.04,38.4,122.027c-2.56,40.96-11.947,97.28-38.4,125.44C7.568,489.684,20.368,487.977,38.288,483.711"/>
	<g>
		<polygon style="fill:#1CD759;" points="255.035,114.217 127.035,233.684 161.168,267.817 255.035,182.484 348.901,267.817 
			383.035,233.684 		"/>
		<polygon style="fill:#1CD759;" points="255.035,182.484 186.768,244.777 186.768,336.084 323.301,336.084 323.301,244.777 		"/>
	</g>
	<path d="M7.568,498.217c-3.413,0-5.973-1.707-7.68-5.12s-0.853-6.827,1.707-10.24c19.627-19.627,33.28-61.44,38.4-116.907
		c-27.307-36.693-40.96-79.36-40.96-123.733c0-127.147,115.2-230.4,256-230.4s256,103.253,256,230.4s-115.2,230.4-256,230.4
		c-36.693,0-71.68-6.827-104.107-19.627c-58.027,33.28-139.093,44.373-142.507,45.227H7.568z M255.035,28.884
		c-131.413,0-238.933,95.573-238.933,213.333c0,41.813,13.653,81.92,39.253,116.907c0.853,1.707,1.707,3.413,1.707,5.973
		c-3.413,35.84-10.24,81.067-29.013,112.64c28.16-5.973,79.36-18.773,117.76-41.813c2.56-1.707,5.12-1.707,7.68-0.853
		c31.573,13.653,65.707,20.48,101.547,20.48c131.413,0,238.933-95.573,238.933-213.333S386.448,28.884,255.035,28.884z"/>
	<path d="M150.075,451.284c-2.56,0-5.973-1.707-7.68-4.267c-2.56-4.267-0.853-9.387,2.56-11.947
		c17.92-11.093,38.4-23.893,42.667-28.16c2.56-3.413,7.68-5.12,11.093-2.56c2.56,1.707,4.267,4.267,4.267,7.68
		c0,5.973,0,6.827-49.493,37.547C152.635,451.284,151.781,451.284,150.075,451.284z"/>
	<path d="M348.901,276.351c-1.707,0-4.267-0.853-5.973-2.56l-87.893-79.36l-87.893,80.213c-3.413,3.413-8.533,2.56-11.947,0
		l-34.133-34.133c-1.707-2.56-2.56-4.267-2.56-6.827c0-2.56,0.853-4.267,2.56-5.973l128-119.467c3.413-3.413,8.533-3.413,11.947,0
		l128,119.467c1.707,1.707,2.56,3.413,2.56,5.973s-0.853,4.267-2.56,5.973l-34.133,34.133
		C353.168,275.497,351.461,276.351,348.901,276.351z M255.035,173.951c1.707,0,4.267,0.853,5.973,2.56l87.893,79.36l22.187-22.187
		l-116.053-107.52l-116.053,107.52l22.187,22.187l87.893-80.213C250.768,174.804,252.475,173.951,255.035,173.951z"/>
	<path d="M323.301,344.617H186.768c-5.12,0-8.533-3.413-8.533-8.533v-91.307c0-2.56,0.853-4.267,2.56-5.973l68.267-62.293
		c3.413-2.56,8.533-2.56,11.093,0l68.267,62.293c1.707,1.707,2.56,4.267,2.56,5.973v91.307
		C331.835,341.204,328.421,344.617,323.301,344.617z M195.301,327.551h119.467v-79.36l-59.733-54.613l-59.733,54.613V327.551z"/>
</g>
<g>
</g>
<g>
</g>
<g>
</g>
<g>
</g>
<g>
</g>
<g>
</g>
<g>
</g>
<g>
</g>
<g>
</g>
<g>
</g>
<g>
</g>
<g>
</g>
<g>
</g>
<g>
</g>
<g>
</g>
</svg>
